# xmcd CD database file
#
# Track frame offsets:
#	150
#	15162
#	26071
#	36539
#	49910
#	62867
#	74463
#	84469
#	96592
#	109092
#	122217
#	131735
#
# Disc length: 1888 seconds
#
# Revision: 0
# Processed by: cddbd v1.5.2PL0 Copyright (c) Steve Scherf et al.
# Submitted via: CDex 1.70beta2
#
DISCID=ae075e0c
DTITLE=Various Artist - Farmhouse Favourites
DYEAR=2006
DGENRE=Country
TTITLE0=Loretta Lynn - Coal Miner's Daughter
TTITLE1=Waylon Jennings - Burning Memories
TTITLE2=Faron Young - Hello Walls
TTITLE3=Donna Fargo - Daddy
TTITLE4=Slim Whitman - Release Me
TTITLE5=The Kendalls - Heaven's Just A Sin
TTITLE6=Loretta Lynn - You Ain't Woman Enough
TTITLE7=Ray Drusky - Take These Chains From My Heart
TTITLE8=Stonewall Jackson - Ol' Blue
TTITLE9=Lynn Anderson - Rose Garden
TTITLE10=Roger Miller - Chug-A-Lug
TTITLE11=Slim Whitman - Cara Mia
EXTD=YEAR: 2006
EXTT0=
EXTT1=
EXTT2=
EXTT3=
EXTT4=
EXTT5=
EXTT6=
EXTT7=
EXTT8=
EXTT9=
EXTT10=
EXTT11=
PLAYORDER=
